HIERARCHY
ROOT hip
{
	OFFSET 0.000000 0.000000 0.000000 
	CHANNELS 6 Xposition Yposition Zposition Xrotation Zrotation Yrotation
	JOINT abdomen
	{
		OFFSET 0.000000 3.402643 0.000000 
		CHANNELS 3 Xrotation Zrotation Yrotation
		JOINT chest
		{
			OFFSET 0.000000 8.438565 -0.680529 
			CHANNELS 3 Xrotation Zrotation Yrotation
			JOINT neck
			{
				OFFSET 0.000000 10.207942 -0.272212 
				CHANNELS 3 Xrotation Zrotation Yrotation
				JOINT head
				{
					OFFSET 0.000000 3.130431 0.000000 
					CHANNELS 3 Xrotation Zrotation Yrotation
					End Site
					{
						OFFSET 0.000000 3.130435 0.000000 
					}
				}
			}
			JOINT lCollar
			{
				OFFSET 3.470700 6.669187 -0.816635 
				CHANNELS 3 Yrotation Zrotation Xrotation
				JOINT lShldr
				{
					OFFSET 3.198488 0.000000 0.000000 
					CHANNELS 3 Zrotation Yrotation Xrotation
					JOINT lForeArm
					{
						OFFSET 10.139888 0.000000 0.000000 
						CHANNELS 3 Yrotation Zrotation Xrotation
						JOINT lHand
						{
							OFFSET 8.370511 0.000000 0.000000 
							CHANNELS 3 Zrotation Yrotation Xrotation
							End Site
							{
								OFFSET 4.083176 0.000000 0.000000 
							}
						}
					}
				}
			}
			JOINT rCollar
			{
				OFFSET -3.470700 6.669187 -0.816635 
				CHANNELS 3 Yrotation Zrotation Xrotation
				JOINT rShldr
				{
					OFFSET -3.198488 0.000000 0.000000 
					CHANNELS 3 Zrotation Yrotation Xrotation
					JOINT rForeArm
					{
						OFFSET -10.139888 0.000000 0.000000 
						CHANNELS 3 Yrotation Zrotation Xrotation
						JOINT rHand
						{
							OFFSET -8.370511 0.000000 0.000000 
							CHANNELS 3 Zrotation Yrotation Xrotation
							End Site
							{
								OFFSET -4.083176 0.000000 0.000000 
							}
						}
					}
				}
			}
		}
	}
	JOINT lThigh
	{
		OFFSET 5.308129 -1.633274 1.361059 
		CHANNELS 3 Xrotation Zrotation Yrotation
		JOINT lShin
		{
			OFFSET -2.041588 -20.007561 0.000000 
			CHANNELS 3 Xrotation Zrotation Yrotation
			JOINT lFoot
			{
				OFFSET 0.000000 -19.190928 -1.224953 
				CHANNELS 3 Xrotation Yrotation Zrotation
				End Site
				{
					OFFSET 0.000000 -2.449906 4.627600 
				}
			}
		}
	}
	JOINT rThigh
	{
		OFFSET -5.308129 -1.633274 1.361059 
		CHANNELS 3 Xrotation Zrotation Yrotation
		JOINT rShin
		{
			OFFSET 2.041588 -20.007561 0.000000 
			CHANNELS 3 Xrotation Zrotation Yrotation
			JOINT rFoot
			{
				OFFSET 0.000000 -19.190928 -1.224953 
				CHANNELS 3 Xrotation Yrotation Zrotation
				End Site
				{
					OFFSET 0.000000 -2.449906 4.627600 
				}
			}
		}
	}
}
MOTION
Frames: 20
Frame Time: 0.016667
-0.926681 35.314869 -0.347733 5.570420 -6.259600 -27.963400 -21.499001 4.059970 4.047910 13.348100 1.172300 2.429890 10.000971 -5.878672 -10.718852 8.305970 7.606770 -5.992540 2.000000 -2.000000 0.000000 -83.961800 -3.477270 167.322006 26.680000 -0.337008 0.061446 0.047155 0.018580 -126.746002 -2.000000 2.000000 0.000000 76.863403 -4.848980 -169.572006 -38.867599 0.321296 0.085796 -0.054495 0.005551 -138.904007 -48.381554 23.713253 13.656587 71.118446 0.343344 4.343398 -21.631937 2.515453 1.130322 6.677711 -3.608584 -6.873490 40.185310 -3.577059 -2.557218 -31.474892 -24.885590 -15.668592 
-0.947128 35.318577 -0.345164 5.669510 -6.336300 -27.952400 -21.540199 4.119530 4.012230 13.318700 1.191600 2.426830 10.023561 -5.747344 -10.736952 8.277240 7.675290 -5.971860 2.000000 -2.000000 0.000000 -84.029999 -3.487630 167.067993 26.572599 -0.337123 0.061217 0.047268 0.019198 -126.521004 -2.000000 2.000000 0.000000 76.834198 -4.858340 -169.748001 -38.867599 0.321296 0.085796 -0.054458 0.004348 -138.475006 -48.512627 23.762918 13.453690 71.137924 0.347469 4.345595 -21.594803 2.584438 1.149044 6.646526 -3.459045 -6.895408 40.156044 -3.569882 -2.545212 -31.572126 -24.756432 -15.678616 
-0.970031 35.322285 -0.340883 5.688730 -6.297210 -27.950701 -21.579300 4.118920 4.010680 13.279600 1.220560 2.422310 10.004844 -5.793334 -10.777338 8.257530 7.675530 -6.013530 2.000000 -2.000000 0.000000 -84.010498 -3.487540 167.106995 26.543301 -0.337154 0.061155 0.047248 0.019091 -126.559998 -2.000000 2.000000 0.000000 76.863602 -4.877710 -169.815994 -38.730900 0.321500 0.085542 -0.054459 0.004403 -138.494003 -48.545349 23.744936 13.423966 71.128166 0.343445 4.343638 -21.540588 2.623578 1.171281 6.625998 -3.454918 -6.895742 40.175823 -3.572750 -2.556413 -31.635326 -24.703972 -15.684357 
-0.993646 35.327229 -0.330882 5.678270 -6.239010 -27.963400 -21.567801 4.093010 4.052820 13.318700 1.191600 2.446370 10.124207 -5.865193 -10.719069 8.326150 7.645490 -6.006580 2.000000 -2.000000 0.000000 -83.932404 -3.604520 167.195007 26.474899 -0.337227 0.061009 0.047263 0.019172 -126.530998 -2.000000 2.000000 0.000000 76.941704 -4.867550 -169.981995 -38.662498 0.321602 0.085414 -0.054450 0.004075 -138.376999 -48.505627 23.724257 13.471481 71.108276 0.356061 4.343404 -21.540276 2.629997 1.163979 6.619656 -3.502179 -6.931320 40.176712 -3.566007 -2.563734 -31.621614 -24.729033 -15.677567 
-1.013979 35.327229 -0.322023 5.707850 -6.248410 -27.967600 -21.556499 4.088680 4.096930 13.348200 1.143240 2.462860 10.223018 -5.946993 -10.721557 8.375170 7.625420 -6.021080 2.000000 -2.000000 0.000000 -83.873901 -3.701930 167.302994 26.435801 -0.337269 0.060925 0.047302 0.019387 -126.453003 -2.000000 2.000000 0.000000 76.971100 -4.886830 -170.089996 -38.633202 0.321646 0.085360 -0.054452 0.004157 -138.406006 -48.559677 23.763506 13.425345 71.118423 0.342474 4.343103 -21.498438 2.648933 1.174469 6.626906 -3.473209 -6.947306 40.146187 -3.576028 -2.557170 -31.688513 -24.637152 -15.660345 
-1.034169 35.326553 -0.313465 5.717350 -6.219150 -27.955999 -21.564501 4.074960 4.143870 13.367800 1.104530 2.487670 10.247616 -6.078342 -10.761036 8.404360 7.595850 -6.068240 2.000000 -2.000000 0.000000 -83.805603 -3.789550 167.419998 26.386999 -0.337321 0.060821 0.047327 0.019521 -126.403999 -2.000000 2.000000 0.000000 77.010201 -4.915940 -170.167999 -38.594101 0.321704 0.085287 -0.054455 0.004266 -138.445007 -48.530796 23.754761 13.415199 71.137939 0.345130 4.343767 -21.556021 2.660316 1.183237 6.638352 -3.474576 -6.986424 40.116844 -3.580379 -2.568684 -31.593485 -24.731527 -15.669996 
-1.055673 35.323967 -0.310323 5.727180 -6.219050 -27.957001 -21.584600 4.080330 4.130390 13.319000 1.104410 2.486730 10.387316 -6.140581 -10.642597 8.472960 7.565810 -6.032160 2.000000 -2.000000 0.000000 -83.776299 -3.809100 167.410995 26.367500 -0.337341 0.060779 0.047342 0.019602 -126.375000 -2.000000 2.000000 0.000000 77.000397 -4.984320 -170.158005 -38.623402 0.321661 0.085342 -0.054450 0.004075 -138.376999 -48.539078 23.766602 13.389424 71.137939 0.351196 4.347865 -21.554787 2.665721 1.197845 6.675489 -3.452035 -6.972452 40.097733 -3.573741 -2.567172 -31.688095 -24.692329 -15.679125 
-1.076089 35.322285 -0.309183 5.736790 -6.199510 -27.946400 -21.613701 4.058300 4.127300 13.270200 1.084920 2.478500 10.416702 -6.177434 -10.690022 8.482930 7.575420 -6.069190 2.000000 -2.000000 0.000000 -83.717697 -3.809050 167.429993 26.386999 -0.337321 0.060821 0.047297 0.019360 -126.462997 -2.000000 2.000000 0.000000 76.980904 -5.072420 -170.070999 -38.662498 0.321602 0.085414 -0.054455 0.004239 -138.434998 -48.564697 23.762768 13.366854 71.147705 0.343553 4.342056 -21.534491 2.670336 1.200085 6.672475 -3.438723 -6.980949 40.068108 -3.571268 -2.556124 -31.562140 -24.822336 -15.702636 
-1.094623 35.321384 -0.308321 5.765830 -6.160320 -27.955400 -21.652300 4.039560 4.133000 13.240900 1.084850 2.477950 10.437209 -6.170110 -10.694855 8.483050 7.585160 -6.068430 2.000000 -2.000000 0.000000 -83.668900 -3.789500 167.440002 26.445601 -0.337258 0.060946 0.047263 0.019172 -126.530998 -2.000000 2.000000 0.000000 76.971100 -5.170170 -170.031998 -38.721100 0.321515 0.085524 -0.054453 0.004184 -138.416000 -48.638302 23.755623 13.338329 71.137924 0.344282 4.343489 -21.476791 2.737729 1.228371 6.625789 -3.438439 -6.943030 40.087467 -3.574607 -2.557308 -31.658722 -24.722092 -15.704083 
-1.111900 35.315994 -0.307759 5.795610 -6.189150 -27.941999 -21.690701 4.036740 4.153410 13.182400 1.026600 2.494120 10.475191 -6.165938 -10.732254 8.483180 7.594900 -6.087210 2.000000 -2.000000 0.000000 -83.600601 -3.760050 167.507996 26.484699 -0.337217 0.061030 0.047248 0.019091 -126.559998 -2.000000 2.000000 0.000000 77.019997 -5.267670 -170.100006 -38.701599 0.321544 0.085487 -0.054454 0.004211 -138.425995 -48.642776 23.780327 13.288202 71.147293 0.350295 4.337447 -21.496550 2.737276 1.228701 6.640687 -3.377490 -6.935159 40.067825 -3.575135 -2.557572 -31.708145 -24.740179 -15.733387 
-1.128775 35.317230 -0.301191 5.785260 -6.140680 -27.965300 -21.700199 4.015020 4.151100 13.182400 1.016910 2.485610 10.525571 -6.101102 -10.681337 8.493270 7.614250 -6.045350 2.000000 -2.000000 0.000000 -83.561501 -3.740650 167.449997 26.552999 -0.337144 0.061176 0.047238 0.019037 -126.580002 -2.000000 2.000000 0.000000 77.049301 -5.238230 -170.158997 -38.613701 0.321675 0.085323 -0.054448 0.003965 -138.337997 -48.610538 23.768927 13.330019 71.147690 0.351280 4.347487 -21.524279 2.754751 1.229110 6.626722 -3.438742 -7.002192 40.076782 -3.581369 -2.549912 -31.572256 -24.851391 -15.739244 
-1.142603 35.316330 -0.295763 5.785150 -6.130960 -28.003401 -21.708200 3.988840 4.193260 13.172800 0.958781 2.512490 10.531991 -6.165351 -10.679587 8.512490 7.575060 -6.055560 2.000000 -2.000000 0.000000 -83.483398 -3.769830 167.498993 26.552999 -0.337144 0.061176 0.047248 0.019091 -126.559998 -2.000000 2.000000 0.000000 77.108002 -5.238020 -170.246994 -38.555099 0.321762 0.085214 -0.054446 0.003883 -138.307999 -48.638462 23.809807 13.317824 71.166824 0.351058 4.336534 -21.489481 2.789037 1.260097 6.628201 -3.435130 -6.962161 40.107655 -3.572108 -2.566486 -31.716370 -24.741148 -15.749100 
-1.154702 35.317680 -0.289757 5.784940 -6.111530 -28.040501 -21.687901 3.974400 4.210320 13.182600 0.920063 2.517670 10.510946 -6.212593 -10.697029 8.522210 7.565200 -6.074560 2.000000 -2.000000 0.000000 -83.434601 -3.857720 167.498993 26.533501 -0.337165 0.061134 0.047233 0.019010 -126.589996 -2.000000 2.000000 0.000000 77.098198 -5.237960 -170.276001 -38.574600 0.321733 0.085250 -0.054448 0.003965 -138.337997 -48.668201 23.821104 13.307801 71.313499 0.351045 4.338790 -21.575254 2.818139 1.258294 6.629069 -3.452095 -6.964195 40.156246 -3.572484 -2.555873 -31.798105 -24.690916 -15.739674 
-1.165160 35.315434 -0.281765 5.785050 -6.121250 -28.061001 -21.646500 3.943260 4.266280 13.231600 0.832991 2.549190 10.551684 -6.216683 -10.685208 8.551520 7.545370 -6.062460 2.000000 -2.000000 0.000000 -83.356499 -3.994260 167.576996 26.494400 -0.337206 0.061051 0.047233 0.019010 -126.589996 -2.000000 2.000000 0.000000 77.147102 -5.218120 -170.403000 -38.613701 0.321675 0.085323 -0.054446 0.003883 -138.307999 -48.569389 23.818195 13.297883 71.187103 0.340873 4.347767 -21.490490 2.856411 1.290151 6.599395 -3.462647 -6.976541 40.186859 -3.561295 -2.562004 -31.777431 -24.669601 -15.717138 
-1.177327 35.314644 -0.279197 5.795080 -6.140570 -28.054199 -21.626499 3.937880 4.279710 13.241500 0.794264 2.554300 10.466900 -6.289670 -10.729544 8.541300 7.516290 -6.095330 2.000000 -2.000000 0.000000 -83.327202 -4.091830 167.615997 26.426100 -0.337279 0.060904 0.047243 0.019064 -126.570000 -2.000000 2.000000 0.000000 77.127502 -5.227890 -170.403000 -38.652699 0.321617 0.085396 -0.054448 0.003965 -138.337997 -48.598995 23.812057 13.247737 71.215950 0.344411 4.339626 -21.482752 2.926684 1.287879 6.597907 -3.430598 -7.041727 40.205963 -3.568146 -2.564255 -31.701344 -24.772346 -15.735482 
-1.191605 35.312511 -0.277484 5.785050 -6.121250 -28.041500 -21.636801 3.930900 4.261080 13.221900 0.813601 2.541770 10.509565 -6.259195 -10.704533 8.551400 7.535630 -6.082760 2.000000 -2.000000 0.000000 -83.327202 -4.121260 167.557999 26.367500 -0.337341 0.060779 0.047272 0.019225 -126.512001 -2.000000 2.000000 0.000000 77.098297 -5.227850 -170.423004 -38.603901 0.321690 0.085305 -0.054447 0.003938 -138.328003 -48.602207 23.785303 13.220708 71.206612 0.340932 4.346805 -21.478828 2.953782 1.304567 6.618350 -3.435101 -7.051351 40.186249 -3.569677 -2.564959 -31.757111 -24.704121 -15.744760 
-1.205142 35.316330 -0.273769 5.784730 -6.092100 -28.028799 -21.645500 3.906950 4.280650 13.212200 0.784527 2.545380 10.631505 -6.238257 -10.632049 8.600520 7.525290 -6.047830 2.000000 -2.000000 0.000000 -83.278397 -4.160140 167.636002 26.308901 -0.337403 0.060654 0.047277 0.019252 -126.501999 -2.000000 2.000000 0.000000 77.117798 -5.247190 -170.501007 -38.555099 0.321762 0.085214 -0.054444 0.003829 -138.289001 -48.594193 23.752357 13.221604 71.186691 0.348895 4.344091 -21.444433 2.990512 1.314430 6.618826 -3.454068 -7.103022 40.176018 -3.570166 -2.555501 -31.774460 -24.718683 -15.750865 
-1.217129 35.320484 -0.266054 5.813670 -6.043210 -28.026899 -21.666599 3.911150 4.236200 13.212100 0.842640 2.528120 10.457283 -6.384286 -10.609430 8.550300 7.448020 -6.070100 2.000000 -2.000000 0.000000 -83.307701 -4.150530 167.567993 26.260099 -0.337455 0.060550 0.047272 0.019225 -126.512001 -2.000000 2.000000 0.000000 77.029900 -5.257160 -170.412994 -38.506302 0.321835 0.085123 -0.054444 0.003801 -138.279007 -48.651760 23.747488 13.227248 71.167206 0.345984 4.342772 -21.405220 2.984793 1.320851 6.583190 -3.492063 -7.129266 40.166367 -3.568182 -2.554872 -31.778740 -24.704576 -15.766875 
-1.224015 35.327229 -0.263775 5.872480 -6.032860 -28.051701 -21.685900 3.914300 4.244660 13.192600 0.823233 2.530340 10.605433 -6.276093 -10.609461 8.590670 7.525410 -6.049110 2.000000 -2.000000 0.000000 -83.288200 -4.169930 167.626007 26.240499 -0.337475 0.060508 0.047287 0.019306 -126.482002 -2.000000 2.000000 0.000000 77.020103 -5.237520 -170.462006 -38.418400 0.321965 0.084959 -0.054440 0.003665 -138.229996 -48.664898 23.768854 13.223418 71.167168 0.353396 4.348332 -21.443783 2.994911 1.317140 6.498980 -3.460578 -7.138097 40.176861 -3.563951 -2.563042 -31.660955 -24.839067 -15.762259 
-1.228609 35.331944 -0.258063 5.921900 -6.061470 -28.089100 -21.695999 3.923240 4.240710 13.192600 0.813547 2.531590 10.625662 -6.287510 -10.593875 8.600520 7.525290 -6.038070 2.000000 -2.000000 0.000000 -83.268700 -4.238260 167.636002 26.181900 -0.337537 0.060382 0.047302 0.019387 -126.453003 -2.000000 2.000000 0.000000 77.000603 -5.178880 -170.481003 -38.330502 0.322096 0.084794 -0.054436 0.003473 -138.162003 -48.779102 23.850115 13.174728 71.303375 0.357903 4.334001 -21.482071 3.006893 1.314590 6.480589 -3.417007 -7.133329 40.156433 -3.569852 -2.555587 -31.719770 -24.702278 -15.734816 
